Coordinates
version=1
nRows=7
nColumns=40
inDegrees=yes

Units are S.I. units (second, meters, Newtons, ...)
Angles are in degrees.

endheader
time	pelvis_tilt	pelvis_list	pelvis_rotation	pelvis_tx	pelvis_ty	pelvis_tz	hip_flexion_r	hip_adduction_r	hip_rotation_r	knee_angle_r	knee_angle_r_beta	ankle_angle_r	subtalar_angle_r	mtp_angle_r	hip_flexion_l	hip_adduction_l	hip_rotation_l	knee_angle_l	knee_angle_l_beta	ankle_angle_l	subtalar_angle_l	mtp_angle_l	lumbar_extension	lumbar_bending	lumbar_rotation	arm_flex_r	arm_add_r	arm_rot_r	elbow_flex_r	pro_sup_r	wrist_flex_r	wrist_dev_r	arm_flex_l	arm_add_l	arm_rot_l	elbow_flex_l	pro_sup_l	wrist_flex_l	wrist_dev_l
     48.47250000	     -5.19827810	     -4.97813725	      3.18533911	      1.08414585	      0.91917709	      0.46706157	     23.87590996	      1.09419976	    -16.34978877	     20.39824370	     20.39824370	      4.71684994	     -0.33253459	     -3.01145714	     11.93051183	    -11.82104428	     -2.87515625	     48.02359202	     48.02359202	      8.69241371	    -15.04448670	     -9.20219682	    -12.04256793	      5.42410378	      3.59339949	     -6.30446754	    -14.05275223	      1.83374513	     31.71741119	     45.81124621	      0.00000000	      0.00000000	      8.45205235	    -16.61640133	     -8.16516100	    100.34672559	     48.12153070	      0.00000000	      0.00000000
     48.48428571	     -5.28230919	     -5.09474504	      3.29457227	      1.08289227	      0.92042555	      0.46958447	     23.09371049	      1.45137827	    -16.71446391	     19.66851150	     19.66851150	      4.77212109	      0.21088690	     -3.68872327	     14.35768402	    -12.03543802	     -1.59062952	     52.03540739	     52.03540739	      7.50508148	    -15.64302341	     -5.88652845	    -12.12897510	      5.45720283	      3.55998338	     -3.78046174	    -14.35281300	      3.52797122	     31.15958305	     45.75378129	      0.00000000	      0.00000000	      7.49076299	    -15.65655938	     -8.63855920	     97.92876023	     48.13388035	      0.00000000	      0.00000000
     48.49607143	     -5.34521581	     -5.32805148	      3.45296268	      1.08151638	      0.92145132	      0.47203443	     22.32087663	      1.95856699	    -16.96831915	     18.95851460	     18.95851460	      4.98594591	      0.46558724	     -3.70346094	     16.71289344	    -12.36094170	     -0.38665582	     55.56154498	     55.56154498	      5.63740646	    -16.31781022	     -5.09825311	    -12.24692152	      5.56436887	      3.47828740	     -1.70144923	    -14.55330502	      3.55463788	     31.97588547	     45.73667000	      0.00000000	      0.00000000	      6.26157540	    -15.21944704	     -8.14422720	     96.37290782	     48.06933092	      0.00000000	      0.00000000
     48.50785714	     -5.42987644	     -5.37892295	      3.58008709	      1.08001925	      0.92248694	      0.47422490	     21.56719188	      2.26344507	    -17.16937827	     18.23614018	     18.23614018	      5.02910450	      0.80133099	     -4.22247944	     19.11411686	    -12.25350971	      0.92653625	     58.91347974	     58.91347974	      5.44547065	    -16.23385017	     -0.70094626	    -12.24861416	      5.53745091	      3.46198166	      0.52818800	    -14.84467091	      4.44501258	     32.60669737	     45.67867510	      0.00000000	      0.00000000	      5.76522091	    -14.42556093	     -8.25260142	     92.37167125	     48.01549717	      0.00000000	      0.00000000
     48.51964286	     -5.61754653	     -5.51258468	      3.71910421	      1.07830183	      0.92316833	      0.47638045	     20.95738647	      2.66531344	    -17.27616727	     17.51328593	     17.51328593	      5.00610574	      0.90557328	     -4.61121539	     21.62875416	    -12.22234244	      2.12787745	     61.85475708	     61.85475708	      5.43467442	    -15.89274351	      2.79268215	    -12.20343892	      5.54453141	      3.58596478	      2.52470964	    -15.22865398	      5.25452593	     33.64687791	     45.61146228	      0.00000000	      0.00000000	      5.09066798	    -13.86094119	     -7.68976079	     89.43709224	     47.94366863	      0.00000000	      0.00000000
     48.53142857	     -5.76175818	     -5.68290601	      3.90101144	      1.07648213	      0.92375549	      0.47840497	     20.38602346	      3.07147966	    -17.42470602	     16.94849254	     16.94849254	      5.18447642	      1.00921315	     -4.60346511	     23.92663124	    -12.17606583	      3.26688786	     64.06260966	     64.06260966	      4.63193313	    -15.99896635	      3.12252765	    -12.24430136	      5.57790031	      3.36922337	      4.80480113	    -15.37594863	      5.18553132	     34.73210667	     45.59112807	      0.00000000	      0.00000000	      3.90545655	    -13.55768395	     -7.21053309	     87.31954280	     47.86637361	      0.00000000	      0.00000000
     48.54321429	     -5.79766584	     -5.67295513	      4.01201563	      1.07461931	      0.92461237	      0.48022966	     19.71226773	      3.30495454	    -17.43387034	     16.41469693	     16.41469693	      5.25032641	      0.99581895	     -4.81279618	     25.95696091	    -11.95208664	      4.08330851	     65.75148249	     65.75148249	      4.68931506	    -15.79366253	      4.63766805	    -12.34521636	      5.50549821	      3.53375643	      7.01439481	    -15.68734048	      5.64726479	     35.96331938	     45.53705088	      0.00000000	      0.00000000	      3.94233439	    -12.72161660	     -7.03904468	     82.24754937	     47.77085522	      0.00000000	      0.00000000
